<svg xmlns="http://www.w3.org/2000/svg" width="215.82" height="44.84" viewBox="0 0 215.82 44.84">
  <g id="Direction_2" transform="translate(-358.273 -1818.541)">
    <line id="Line_144" data-name="Line 144" x1="5.483" y2="5.483" transform="matrix(0.951, 0.309, -0.309, 0.951, 567.987, 1830.112)" fill="none" stroke="#707070" stroke-linecap="round" stroke-width="1"/>
    <line id="Line_140" data-name="Line 140" y1="5.483" x2="5.483" transform="translate(557.319 1844.226) rotate(-156)" fill="none" stroke="#707070" stroke-linecap="round" stroke-width="1"/>
    <line id="Line_141" data-name="Line 141" y1="5.483" x2="5.483" transform="translate(540.638 1850.508) rotate(-152)" fill="none" stroke="#707070" stroke-linecap="round" stroke-width="1"/>
    <line id="Line_139" data-name="Line 139" y1="5.483" x2="5.483" transform="translate(524.241 1856.253) rotate(-150)" fill="none" stroke="#707070" stroke-linecap="round" stroke-width="1"/>
    <line id="Line_142" data-name="Line 142" y1="5.483" x2="5.483" transform="translate(505.634 1859.537) rotate(-146)" fill="none" stroke="#707070" stroke-linecap="round" stroke-width="1"/>
    <line id="Line_143" data-name="Line 143" y1="5.483" x2="5.483" transform="matrix(-0.743, -0.669, 0.669, -0.743, 487.014, 1862.029)" fill="none" stroke="#707070" stroke-linecap="round" stroke-width="1"/>
    <line id="Line_145" data-name="Line 145" y1="5.483" x2="5.483" transform="matrix(-0.719, -0.695, 0.695, -0.719, 469.471, 1862.381)" fill="none" stroke="#707070" stroke-linecap="round" stroke-width="1"/>
    <line id="Line_146" data-name="Line 146" y1="5.483" x2="5.483" transform="matrix(-0.588, -0.809, 0.809, -0.588, 451.933, 1861.007)" fill="none" stroke="#707070" stroke-linecap="round" stroke-width="1"/>
    <line id="Line_147" data-name="Line 147" y1="5.483" x2="5.483" transform="translate(435.276 1857.955) rotate(-121)" fill="none" stroke="#707070" stroke-linecap="round" stroke-width="1"/>
    <line id="Line_148" data-name="Line 148" y1="5.483" x2="5.483" transform="translate(418.357 1852.467) rotate(-118)" fill="none" stroke="#707070" stroke-linecap="round" stroke-width="1"/>
    <line id="Line_149" data-name="Line 149" y1="5.483" x2="5.483" transform="matrix(-0.438, -0.899, 0.899, -0.438, 401.021, 1846.835)" fill="none" stroke="#707070" stroke-linecap="round" stroke-width="1"/>
    <line id="Line_150" data-name="Line 150" y1="5.483" x2="5.483" transform="translate(384.759 1839.867) rotate(-110)" fill="none" stroke="#707070" stroke-linecap="round" stroke-width="1"/>
    <line id="Line_151" data-name="Line 151" y1="5.483" x2="5.483" transform="translate(370.266 1832.733) rotate(-110)" fill="none" stroke="#707070" stroke-linecap="round" stroke-width="1"/>
    <line id="Line_152" data-name="Line 152" x1="4.057" y2="6.761" transform="translate(366.089 1819.511) rotate(47)" fill="none" stroke="#5a5a5a" stroke-linecap="round" stroke-width="1"/>
    <line id="Line_153" data-name="Line 153" x2="8.114" y2="2.705" transform="translate(361.145 1824.123) rotate(47)" fill="none" stroke="#5a5a5a" stroke-linecap="round" stroke-width="1"/>
  </g>
</svg>
