<svg xmlns="http://www.w3.org/2000/svg" width="209.976" height="69.207" viewBox="0 0 209.976 69.207">
  <g id="Direction_1" transform="translate(-709.018 -1764.965)">
    <line id="Line_66" data-name="Line 66" x1="5.483" y1="5.483" transform="translate(912.804 1827.982)" fill="none" stroke="#707070" stroke-linecap="round" stroke-width="1"/>
    <line id="Line_67" data-name="Line 67" x2="5.483" y2="5.483" transform="matrix(-0.995, 0.105, -0.105, -0.995, 907.592, 1822.197)" fill="none" stroke="#707070" stroke-linecap="round" stroke-width="1"/>
    <line id="Line_68" data-name="Line 68" x2="5.483" y2="5.483" transform="matrix(-0.985, 0.174, -0.174, -0.985, 894.048, 1811.015)" fill="none" stroke="#707070" stroke-linecap="round" stroke-width="1"/>
    <line id="Line_69" data-name="Line 69" x2="5.483" y2="5.483" transform="matrix(-0.978, 0.208, -0.208, -0.978, 880.417, 1800.448)" fill="none" stroke="#707070" stroke-linecap="round" stroke-width="1"/>
    <line id="Line_70" data-name="Line 70" x2="5.483" y2="5.483" transform="translate(864.107 1791.481) rotate(164)" fill="none" stroke="#707070" stroke-linecap="round" stroke-width="1"/>
    <line id="Line_71" data-name="Line 71" x2="5.483" y2="5.483" transform="matrix(-0.914, 0.407, -0.407, -0.914, 847.887, 1783.096)" fill="none" stroke="#707070" stroke-linecap="round" stroke-width="1"/>
    <line id="Line_72" data-name="Line 72" x2="5.483" y2="5.483" transform="matrix(-0.899, 0.438, -0.438, -0.899, 831.485, 1777.259)" fill="none" stroke="#707070" stroke-linecap="round" stroke-width="1"/>
    <line id="Line_73" data-name="Line 73" x2="5.483" y2="5.483" transform="matrix(-0.809, 0.588, -0.588, -0.809, 815.2, 1772.655)" fill="none" stroke="#707070" stroke-linecap="round" stroke-width="1"/>
    <line id="Line_74" data-name="Line 74" x2="5.483" y2="5.483" transform="translate(798.79 1770.112) rotate(139)" fill="none" stroke="#707070" stroke-linecap="round" stroke-width="1"/>
    <line id="Line_75" data-name="Line 75" x2="5.483" y2="5.483" transform="matrix(-0.719, 0.695, -0.695, -0.719, 781.214, 1769.909)" fill="none" stroke="#707070" stroke-linecap="round" stroke-width="1"/>
    <line id="Line_76" data-name="Line 76" x2="5.483" y2="5.483" transform="matrix(-0.695, 0.719, -0.719, -0.695, 763.122, 1769.773)" fill="none" stroke="#707070" stroke-linecap="round" stroke-width="1"/>
    <line id="Line_77" data-name="Line 77" x2="5.483" y2="5.483" transform="matrix(-0.616, 0.788, -0.788, -0.616, 746.386, 1770.378)" fill="none" stroke="#707070" stroke-linecap="round" stroke-width="1"/>
    <line id="Line_78" data-name="Line 78" x2="5.483" y2="5.483" transform="matrix(-0.616, 0.788, -0.788, -0.616, 729.891, 1773.248)" fill="none" stroke="#707070" stroke-linecap="round" stroke-width="1"/>
    <line id="Line_79" data-name="Line 79" x1="4.057" y2="6.761" transform="matrix(0.995, 0.105, -0.105, 0.995, 710.702, 1770.403)" fill="none" stroke="#5a5a5a" stroke-linecap="round" stroke-width="1"/>
    <line id="Line_80" data-name="Line 80" x2="8.114" y2="2.705" transform="matrix(0.995, 0.105, -0.105, 0.995, 709.996, 1777.127)" fill="none" stroke="#5a5a5a" stroke-linecap="round" stroke-width="1"/>
  </g>
</svg>
